<svg xmlns="http://www.w3.org/2000/svg" width="24" height="24" viewBox="0 0 24 24">
    <defs>
        <filter id="2gghp8h10a">
            <feColorMatrix in="SourceGraphic" values="0 0 0 0 0.011765 0 0 0 0 0.435294 0 0 0 0 0.886275 0 0 0 1.000000 0"/>
        </filter>
    </defs>
    <g fill="none" fill-rule="evenodd">
        <g>
            <g>
                <g>
                    <g>
                        <g transform="translate(-482 -461) translate(80 246) translate(0 169) translate(396 40) translate(6 6)">
                            <g>
                                <path fill="#c1300b" d="M2 4v16h12v2H2C.93 22 .055 21.157.002 20.1L0 20V4h2zm11.414-4L18 4.586V16c0 1.07-.843 1.945-1.9 1.998L16 18H6c-1.07 0-1.945-.843-1.998-1.9L4 16V2C4 .931 4.843.055 5.9.002L6 0h7.414zM12 2H6v14h10.001L16 6h-4V2z" transform="translate(3 1)"/>
                            </g>
                        </g>
                    </g>
                </g>
            </g>
        </g>
    </g>
</svg>
