<svg xmlns="http://www.w3.org/2000/svg" width="24" height="24" viewBox="0 0 24 24">
    <defs>
        <filter id="sv7tjo7b6a">
            <feColorMatrix in="SourceGraphic" values="0 0 0 0 1.000000 0 0 0 0 1.000000 0 0 0 0 1.000000 0 0 0 1.000000 0"/>
        </filter>
    </defs>
    <g fill="none" fill-rule="evenodd">
        <g>
            <g>
                <g filter="url(#sv7tjo7b6a)" transform="translate(-16 -180) translate(10 174) translate(6 6)">
                    <g>
                        <path fill="#757575" d="M10 0c5.514 0 10 4.486 10 10 0 5.515-4.486 10-10 10S0 15.515 0 10C0 4.486 4.486 0 10 0zm0 2c-4.411 0-8 3.589-8 8s3.589 8 8 8 8-3.589 8-8-3.589-8-8-8zm0 6c.552 0 1 .448 1 1v4h2v2H7v-2h2v-3H8V8zm0-3.25c.69 0 1.25.56 1.25 1.25S10.69 7.25 10 7.25 8.75 6.69 8.75 6 9.31 4.75 10 4.75z" transform="translate(2 2)"/>
                    </g>
                </g>
            </g>
        </g>
    </g>
</svg>
