<svg width="20" height="20" viewBox="0 0 20 20" xmlns="http://www.w3.org/2000/svg"><path d="M10 0c5.514 0 10 4.486 10 10 0 5.515-4.486 10-10 10S0 15.515 0 10C0 4.486 4.486 0 10 0zm0 2c-4.411 0-8 3.589-8 8s3.589 8 8 8 8-3.589 8-8-3.589-8-8-8zm0 11.75c.69 0 1.25.56 1.25 1.25s-.56 1.25-1.25 1.25-1.25-.56-1.25-1.25.56-1.25 1.25-1.25zM10 4c2.206 0 4 1.794 4 4 0 1.86-1.277 3.428-3 3.874V13H9v-3h1c1.103 0 2-.897 2-2 0-1.104-.897-2-2-2s-2 .896-2 2H6c0-2.206 1.794-4 4-4z" fill="#036FE2" fill-rule="evenodd"/></svg>