<svg width="20" height="20" viewBox="0 0 20 20" xmlns="http://www.w3.org/2000/svg"><defs><filter id="a"><feColorMatrix in="SourceGraphic" values="0 0 0 0 0.172549 0 0 0 0 0.188235 0 0 0 0 0.196078 0 0 0 1.000000 0"/></filter></defs><g fill="none" fill-rule="evenodd"><g filter="url(#a)" fill-opacity="0" transform="translate(-8 -8)"><rect fill="none" width="36" height="36" rx="4"/></g><path d="M16 18c-1.104 0-2-.896-2-2s.896-2 2-2 2 .896 2 2-.896 2-2 2M4 12c-1.104 0-2-.896-2-2s.896-2 2-2 2 .896 2 2-.896 2-2 2M16 2c1.104 0 2 .896 2 2s-.896 2-2 2-2-.896-2-2 .896-2 2-2m0 10c-1.2 0-2.266.542-3 1.382l-5.091-2.546c.058-.27.091-.549.091-.836 0-.287-.033-.566-.091-.836L13 6.618C13.734 7.458 14.8 8 16 8c2.206 0 4-1.794 4-4s-1.794-4-4-4-4 1.794-4 4c0 .287.033.566.091.836L7 7.382C6.266 6.542 5.2 6 4 6c-2.206 0-4 1.794-4 4s1.794 4 4 4c1.2 0 2.266-.542 3-1.382l5.091 2.546c-.058.27-.091.549-.091.836 0 2.206 1.794 4 4 4s4-1.794 4-4-1.794-4-4-4" fill="#FFF"/></g></svg>