<svg width="22" height="20" viewBox="0 0 22 20" xmlns="http://www.w3.org/2000/svg"><defs><filter id="a"><feColorMatrix in="SourceGraphic" values="0 0 0 0 0.000000 0 0 0 0 0.000000 0 0 0 0 0.000000 0 0 0 0.000000 0"/></filter><filter id="b"><feColorMatrix in="SourceGraphic" values="0 0 0 0 1.000000 0 0 0 0 1.000000 0 0 0 0 1.000000 0 0 0 1.000000 0"/></filter></defs><g fill="none" fill-rule="evenodd"><g filter="url(#a)" fill-opacity=".4" transform="translate(-7 -8)"><rect fill="#2C3032" width="36" height="36" rx="4"/></g><g transform="translate(-1 -2)" filter="url(#b)"><g fill="#757575"><path d="M3 20.0005v-12h17.999l-.002 12H3zm3-14H3v-2h3v2zm2-2h3v2H8v-2zm13 2h-8v-2h8v2zm0-4H3c-1.103 0-2 .897-2 2v16c0 1.103.897 2 2 2h18c1.103 0 2-.897 2-2v-16c0-1.103-.897-2-2-2z"/><path d="M13 17h5v-2h-5zM6.293 11.708L8.586 14l-2.293 2.294 1.414 1.414L11.414 14l-3.707-3.706z"/></g></g></g></svg>