<svg width="20" height="20" viewBox="0 0 20 20" xmlns="http://www.w3.org/2000/svg">
  <defs>
    <filter id="a">
      <feColorMatrix in="SourceGraphic" values="0 0 0 0 1.000000 0 0 0 0 1.000000 0 0 0 0 1.000000 0 0 0 1.000000 0"/>
    </filter>
  </defs>
  <g transform="translate(-2 -2)" filter="url(#a)" fill="none" fill-rule="evenodd">
    <path d="M18 20c-1.104 0-2-.896-2-2s.896-2 2-2 2 .896 2 2-.896 2-2 2M6 14c-1.104 0-2-.896-2-2s.896-2 2-2 2 .896 2 2-.896 2-2 2M18 4c1.104 0 2 .896 2 2s-.896 2-2 2-2-.896-2-2 .896-2 2-2m0 10c-1.2 0-2.266.542-3 1.382l-5.091-2.546c.058-.27.091-.549.091-.836 0-.287-.033-.566-.091-.836L15 8.618c.734.84 1.8 1.382 3 1.382 2.206 0 4-1.794 4-4s-1.794-4-4-4-4 1.794-4 4c0 .287.033.566.091.836L9 9.382C8.266 8.542 7.2 8 6 8c-2.206 0-4 1.794-4 4s1.794 4 4 4c1.2 0 2.266-.542 3-1.382l5.091 2.546c-.058.27-.091.549-.091.836 0 2.206 1.794 4 4 4s4-1.794 4-4-1.794-4-4-4" fill="#757575"/>
  </g>
</svg>